HIERARCHY
ROOT Hips
{
	OFFSET	0.00	0.00	0.00
	CHANNELS 6 Xposition Yposition Zposition Zrotation Xrotation Yrotation
	JOINT LeftUpLeg
	{
		OFFSET	 0.126116	-0.014019	-0.065224
		CHANNELS 3 Zrotation Xrotation Yrotation
		JOINT LeftLeg
		{
			OFFSET	 0.000000	 0.000000	 0.569914
			CHANNELS 3 Zrotation Xrotation Yrotation
			JOINT LeftFoot
			{
				OFFSET	 0.000000	 0.000000	 0.544423
				CHANNELS 3 Zrotation Xrotation Yrotation
				JOINT LeftToeBase
				{
					OFFSET	 0.000000	 0.000000	 0.207117
					CHANNELS 3 Zrotation Xrotation Yrotation
					End Site
					{
						OFFSET	 0.000000	 0.000000	 0.207117
					}
				}
			}
		}
	}
	JOINT RightUpLeg
	{
		OFFSET	-0.124023	-0.008373	-0.065224
		CHANNELS 3 Zrotation Xrotation Yrotation
		JOINT RightLeg
		{
			OFFSET	 0.000000	 0.000000	 0.570047
			CHANNELS 3 Zrotation Xrotation Yrotation
			JOINT RightFoot
			{
				OFFSET	 0.000000	 0.000000	 0.544354
				CHANNELS 3 Zrotation Xrotation Yrotation
				JOINT RightToeBase
				{
					OFFSET	 0.000000	 0.000000	 0.207540
					CHANNELS 3 Zrotation Xrotation Yrotation
					End Site
					{
						OFFSET	 0.000000	 0.000000	 0.207540
					}
				}
			}
		}
	}
	JOINT Spine
	{
		OFFSET	 0.000184	-0.007763	 0.117403
		CHANNELS 3 Zrotation Xrotation Yrotation
		JOINT Spine1
		{
			OFFSET	 0.000000	 0.000000	 0.137269
			CHANNELS 3 Zrotation Xrotation Yrotation
			JOINT Spine2
			{
				OFFSET	 0.000000	 0.000000	 0.156879
				CHANNELS 3 Zrotation Xrotation Yrotation
				JOINT LeftShoulder
				{
					OFFSET	 0.080501	-0.002496	 0.160144
					CHANNELS 3 Zrotation Xrotation Yrotation
					JOINT LeftArm
					{
						OFFSET	 0.000000	 0.000000	 0.164363
						CHANNELS 3 Zrotation Xrotation Yrotation
						JOINT LeftForeArm
						{
							OFFSET	 0.000000	 0.000000	 0.364576
							CHANNELS 3 Zrotation Xrotation Yrotation
							JOINT LeftHand
							{
								OFFSET	 0.000000	 0.000000	 0.360812
								CHANNELS 3 Zrotation Xrotation Yrotation
								JOINT LeftHandIndex1
								{
									OFFSET	 0.000000	 0.000000	 0.086006
									CHANNELS 3 Zrotation Xrotation Yrotation
									JOINT LeftHandIndex2
									{
										OFFSET	 0.000000	 0.000000	 0.047236
										CHANNELS 3 Zrotation Xrotation Yrotation
										JOINT LeftHandIndex3
										{
											OFFSET	-0.004284	-0.000551	 0.038166
											CHANNELS 3 Zrotation Xrotation Yrotation
											End Site
											{
												OFFSET	-0.004284	-0.000551	 0.038166
											}
										}
									}
								}
							}
						}
					}
				}
				JOINT Neck
				{
					OFFSET	 0.000000	 0.000000	 0.176489
					CHANNELS 3 Zrotation Xrotation Yrotation
					JOINT Head
					{
						OFFSET	 0.000000	-0.001747	 0.077940
						CHANNELS 3 Zrotation Xrotation Yrotation
						End Site
						{
							OFFSET	 0.000000	-0.001747	 0.077940
						}
					}
				}
				JOINT RightShoulder
				{
					OFFSET	-0.080363	 0.000306	 0.159706
					CHANNELS 3 Zrotation Xrotation Yrotation
					JOINT RightArm
					{
						OFFSET	 0.000000	 0.000000	 0.164196
						CHANNELS 3 Zrotation Xrotation Yrotation
						JOINT RightForeArm
						{
							OFFSET	 0.000000	 0.000000	 0.365611
							CHANNELS 3 Zrotation Xrotation Yrotation
							JOINT RightHand
							{
								OFFSET	 0.000000	 0.000000	 0.360648
								CHANNELS 3 Zrotation Xrotation Yrotation
								JOINT RightHandIndex1
								{
									OFFSET	 0.000000	 0.000000	 0.069977
									CHANNELS 3 Zrotation Xrotation Yrotation
									JOINT RightHandIndex2
									{
										OFFSET	 0.000000	 0.000000	 0.052305
										CHANNELS 3 Zrotation Xrotation Yrotation
										JOINT RightHandIndex3
										{
											OFFSET	 0.009002	-0.000782	 0.042196
											CHANNELS 3 Zrotation Xrotation Yrotation
											End Site
											{
												OFFSET	 0.009002	-0.000782	 0.042196
											}
										}
									}
								}
							}
						}
					}
				}
			}
		}
	}
}
MOTION
Frames:    9
Frame Time: 0.03333334
-0.059168	-2.278997	 1.237809	 5.055303	-1.094224	-2.854413	 14.304780	-4.456714	-175.283100	 0.933777	-28.774840	 0.279714	 25.342430	 74.514420	-28.808940	-2.369528	 31.595090	-0.069467	-21.294610	-32.559350	-177.797400	 9.858091	-46.547490	 7.748477	 3.127896	 67.151710	 2.657756	 2.358900	 33.010120	 0.103459	 17.724250	 8.608082	 1.905408	-1.710412	 2.207738	-0.900459	 1.601058	-2.241850	 0.912928	-93.960040	 59.016350	 175.335400	 8.391270	 28.309020	-43.682570	 10.785600	-1.866327	-8.402761	 22.748380	-45.650600	 9.832844	-4.868922	 19.251750	-2.786707	-3.883059	 21.453150	 2.204311	-4.808211	 5.546085	 0.146935	-0.069142	-5.082943	 0.188074	-0.487563	 2.118016	 2.643950	 89.771960	 61.658340	 179.975800	-20.370280	 53.555920	 13.380080	-13.921160	-3.079667	 11.113100	-27.470600	-29.229680	-11.004220	 6.292167	 24.681770	-0.535791	 1.911312	 44.491150	-7.016108	 0.566577	 24.099110	 3.547892
-0.063235	-2.360656	 1.232062	 6.231814	 0.250777	-3.122900	 13.156640	-1.437095	-176.253500	 1.362840	-27.504210	 0.466525	 23.923500	 77.085300	-27.447150	-2.366441	 32.096980	-0.080892	-25.201360	-35.756270	 178.806100	 9.850642	-33.004950	 5.825409	-1.265577	 67.772740	 5.709784	 2.360521	 32.769540	 0.097879	 11.971760	 7.637321	 1.735850	-1.903266	 2.453309	-0.643143	 1.365788	-2.631823	 0.847803	-94.303440	 58.974150	 174.609200	 5.922727	 24.146310	-45.075950	 13.581420	-3.091102	-10.682040	 24.861210	-42.066680	 9.022650	-4.851990	 19.674720	-2.812658	-3.858053	 21.771900	 2.178903	-4.795169	 5.699771	 0.137930	-0.011430	-5.158708	 0.292572	-0.542252	 2.027019	 2.520194	 89.604690	 61.862280	 179.573700	-19.651140	 56.150550	 8.507154	-18.696530	-5.899233	 15.797280	-29.461700	-23.314940	-10.248640	 6.249319	 21.878200	-0.598205	 2.201085	 42.016100	-7.272269	 1.162059	 21.417610	 3.259004
-0.068472	-2.442114	 1.221359	 6.557368	 1.008856	-3.628740	 12.702870	 2.345056	-177.259900	 1.556348	-26.442090	 0.536031	 20.621170	 79.857640	-23.993570	-2.357891	 33.390720	-0.110751	-24.653120	-38.294210	 177.110900	 9.385651	-22.636180	 3.939128	 0.219384	 72.260640	 2.857230	 2.351507	 34.053960	 0.127926	 5.946668	 6.754661	 1.959087	-2.064597	 3.318083	-0.512424	 1.291479	-3.050969	 0.811696	-94.489670	 58.859910	 174.230900	 3.622700	 21.517630	-46.284030	 15.700100	-4.437306	-12.619200	 25.442820	-36.225170	 8.058791	-4.823376	 20.263720	-2.822938	-3.820649	 22.243850	 2.140907	-4.767828	 6.020757	 0.118996	 0.026282	-5.288575	 0.345430	-0.567960	 1.913262	 2.470118	 89.434770	 62.041950	 179.159900	-17.865130	 57.458050	 7.075263	-24.296900	-5.022573	 13.352610	-31.026410	-15.851020	-9.443472	 6.191165	 18.808660	-0.718852	 2.562458	 38.582030	-7.585931	 1.823197	 18.300570	 2.966421
-0.075806	-2.521310	 1.206866	 6.933690	 1.034028	-3.787850	 12.074900	 6.283913	-178.827600	 1.951269	-26.220580	 0.706434	 11.769630	 80.814130	-15.033270	-2.323227	 37.594930	-0.212937	-24.436120	-43.231120	 175.515500	 10.148880	-22.053210	 4.138136	 0.195951	 71.793650	 2.024969	 2.336195	 35.974280	 0.174220	-0.957825	 6.799372	 2.032394	-2.200240	 3.514755	-0.483679	 1.308042	-3.411618	 0.802105	-94.537950	 58.999720	 174.105300	 1.738425	 20.724760	-46.894650	 18.405480	-5.820435	-14.230700	 24.847690	-30.943080	 5.144095	-4.854396	 20.530880	-3.081359	-3.781884	 22.726770	 2.101537	-4.720437	 6.573577	 0.086006	 0.127864	-5.422150	 0.330080	-0.412575	 1.904976	 2.147140	 89.357570	 61.873540	 178.979800	-15.658670	 58.165330	 3.370724	-28.819510	-5.944679	 14.234950	-31.199050	-8.683028	-8.302311	 6.170013	 15.671440	-0.613899	 2.909748	 34.866490	-7.880057	 2.461291	 15.159690	 2.714319
-0.085480	-2.611421	 1.196117	 7.281018	 0.749213	-2.956622	 11.646910	 10.453090	 178.256400	 1.930417	-26.397300	 0.701577	-1.313603	 78.254480	-0.839677	-2.202444	 46.682380	-0.471873	-23.121130	-42.647490	 174.502500	 7.544969	-21.182100	 3.018500	-4.008107	 64.415270	 10.076620	 2.340203	 35.498380	 0.162584	-8.697527	 6.821916	 1.306064	-2.505513	 3.341614	-0.777181	 1.306947	-3.270534	 0.825921	-94.473260	 59.321080	 174.190000	 0.477074	 20.600100	-46.369510	 20.570260	-7.186314	-15.575890	 23.733310	-24.875960	 1.748073	-4.888709	 20.681630	-3.327991	-3.757072	 23.032660	 2.076349	-4.651692	 7.368062	 0.037711	 0.236354	-5.477464	 0.252476	-0.155923	 2.058633	 2.170535	 89.354350	 61.492660	 178.986000	-13.998560	 58.328310	 0.201135	-32.639040	-7.321130	 15.564570	-30.843850	-1.642261	-6.474696	 6.245320	 12.603430	-0.103048	 3.098554	 32.655100	-8.036361	 3.019690	 12.312540	 2.519768
-0.097537	-2.723272	 1.189182	 8.752171	-0.288378	-1.505777	 12.023210	 14.753650	 173.419500	-0.156611	-28.070690	-0.239679	-5.699067	 66.785440	 8.758876	-1.821141	 60.025170	-1.041391	-20.891570	-38.628750	 174.541500	 6.589054	-25.135560	 3.134798	-10.878770	 55.303400	 22.854680	 2.335789	 36.022440	 0.175398	-18.530120	 7.223782	 0.031956	-3.227689	 2.924612	-1.313290	 1.150467	-2.691669	 0.846406	-94.365460	 59.075140	 174.461100	 0.440375	 20.344590	-44.872460	 22.387770	-8.629912	-16.799690	 22.752820	-15.332490	-2.276482	-4.883689	 20.992950	-3.402581	-3.723719	 23.439910	 2.042492	-4.555436	 8.464805	-0.030701	 0.382641	-5.394186	 0.284133	 0.082194	 2.569684	 2.459931	 89.173690	 61.329440	 178.565900	-12.522080	 58.120690	-1.680494	-35.382530	-8.768147	 16.775200	-29.805970	 5.347468	-2.695824	 6.349996	 9.521160	 0.416735	 3.333996	 29.689590	-8.227141	 3.489927	 9.850936	 2.375868
-0.110309	-2.823626	 1.188100	 10.150810	-0.919679	-0.006641	 13.515460	 11.398000	 168.296700	 1.517653	-39.363080	 0.738899	-4.627966	 50.400640	 14.766840	-1.164813	 69.679370	-1.826465	-24.046700	-35.609620	 172.757800	 7.541208	-30.810790	 4.272898	-8.795528	 52.496800	 20.892070	 2.357655	 33.192410	 0.107696	-25.873640	 7.309928	-0.932141	-3.523154	 2.598253	-1.927150	 0.918647	-2.208327	 0.930113	-94.181180	 59.590730	 174.777600	 1.930580	 21.393080	-43.654110	 24.848940	-9.668863	-17.565100	 22.733310	-7.735140	-6.259039	-4.798054	 21.331810	-3.005458	-3.655697	 24.256760	 1.973472	-4.490371	 9.195906	-0.077459	 0.378132	-5.351516	 0.211421	 0.095294	 3.054162	 2.410829	 89.010270	 60.595870	 178.225800	-11.605110	 57.380620	-2.434328	-35.610810	-9.793830	 17.551060	-27.455750	 9.796962	 0.925603	 6.382853	 8.726855	 0.556597	 3.388667	 28.966100	-8.270717	 3.661406	 8.940126	 2.328082
-0.122223	-2.922209	 1.193120	 9.017118	-1.590678	 1.382601	 20.817340	 3.622523	 161.374900	 0.228301	-52.990890	-0.099350	 3.639232	 39.044690	 14.664570	-2.333570	 36.473260	-0.184830	-24.260290	-31.439090	 172.026400	 6.108596	-35.287250	 3.979323	-5.930580	 55.864760	 18.424050	 2.373279	 30.675920	 0.050283	-30.375230	 7.797586	-1.889692	-3.167435	 1.545371	-1.808873	 1.030964	-1.528922	 0.548347	-94.049560	 59.774990	 175.036000	 3.739753	 23.283410	-41.955630	 27.334880	-10.390390	-18.046050	 21.940480	-2.380105	-7.979549	-4.739871	 21.803250	-2.804231	-3.583088	 25.109160	 1.899822	-4.429535	 9.872008	-0.121540	 0.278325	-5.405483	 0.176228	-0.014149	 3.199313	 2.547313	 89.083610	 60.264740	 178.411700	-11.998930	 56.633790	-0.994422	-35.244260	-10.496690	 18.045200	-24.463240	 12.117490	 3.214496	 6.406335	 10.045680	 0.644379	 3.296310	 30.180480	-8.196935	 3.571900	 9.416362	 2.352707
-0.129836	-3.030582	 1.205720	 6.730050	-2.621758	 2.133171	 24.307490	-6.631468	 159.300000	-7.046765	-67.963180	-6.864265	 9.116158	 44.968650	 5.998725	-2.381172	 29.452820	-0.021761	-22.606380	-25.875100	 172.422500	 5.524371	-38.007740	 3.878085	-5.788850	 62.618130	 17.733050	 2.374326	 30.485940	 0.046037	-33.539240	 8.603715	-2.358572	-2.492349	 1.413410	-1.533869	 1.390929	-1.232453	 0.359448	-93.947970	 59.472970	 175.299800	 5.796261	 25.581840	-40.648790	 29.049590	-10.730430	-18.259250	 18.723150	-0.026927	-7.749367	-4.634509	 23.227840	-2.602596	-3.497412	 26.089440	 1.812965	-4.302493	 11.260590	-0.214689	 0.132216	-5.308520	 0.070474	-0.123626	 3.081906	 2.489689	 89.398990	 60.257380	 179.129000	-13.662990	 54.178680	 5.366755	-33.715480	-10.814010	 18.272580	-20.160950	 11.707600	 3.607465	 6.383683	 13.085550	 0.523783	 3.029350	 33.482280	-7.979384	 3.183330	 11.462150	 2.467577
